<svg width="19" height="14" viewBox="0 0 19 14" fill="none" xmlns="http://www.w3.org/2000/svg">
<g clip-path="url(#clip0_50_20)">
<path d="M16.3622 0.0688477H2.63785C1.18108 0.0688477 0 1.24182 0 2.68858V11.312C0 12.7587 1.18108 13.9317 2.63785 13.9317H16.3622C17.8189 13.9317 19 12.7587 19 11.312V2.68858C19 1.24182 17.8189 0.0688477 16.3622 0.0688477ZM6.61163 9.42237L2.91776 12.5521C2.65722 12.7729 2.26553 12.7422 2.04321 12.4832C1.82085 12.2244 1.85176 11.8354 2.1126 11.6146L5.80647 8.48493C6.06697 8.2641 6.45863 8.2948 6.68099 8.55385C6.90335 8.81257 6.87243 9.20157 6.61163 9.42237ZM9.5 8.23255C9.00593 8.23134 8.52699 8.06829 8.15256 7.7467L8.15286 7.74699L8.15167 7.74611C8.15196 7.7464 8.1523 7.7464 8.15256 7.7467L2.48492 2.86129C2.22589 2.63802 2.19832 2.24906 2.4228 1.99214C2.64757 1.7349 3.03926 1.70751 3.29791 1.93045L8.96715 6.81708C9.08831 6.92418 9.28796 7.0015 9.5 7.00028C9.71175 7.00091 9.90802 6.92569 10.0359 6.81498L10.0386 6.81258L15.7021 1.93049C15.9607 1.70755 16.3524 1.73493 16.5772 1.99218C16.8016 2.24906 16.7741 2.63806 16.5151 2.86132L10.8459 7.74821C10.4727 8.06645 9.99437 8.23193 9.5 8.23255ZM16.9571 12.4832C16.7347 12.7422 16.343 12.7729 16.0825 12.5521L12.3887 9.42237C12.1279 9.20153 12.097 8.81257 12.3193 8.55385C12.5416 8.2948 12.9333 8.26414 13.1938 8.48493L16.8877 11.6146C17.1485 11.8354 17.1794 12.2244 16.9571 12.4832Z" fill="#ffffff"/>
</g>
<defs>
<clipPath id="clip0_50_20">
<rect width="19" height="14" fill="white"/>
</clipPath>
</defs>
</svg>
