<svg width="15" height="15" viewBox="0 0 15 15" fill="none" xmlns="http://www.w3.org/2000/svg">
<path d="M4.04268 5.84732C4.53658 6.7139 5.1038 7.54543 5.84395 8.30554C6.58272 9.06969 7.50411 9.76376 8.69666 10.3568C8.7852 10.3985 8.86959 10.3985 8.94291 10.3702C9.05636 10.3285 9.17257 10.2368 9.28601 10.1263C9.37455 10.04 9.48385 9.90257 9.59867 9.75298C10.0566 9.16538 10.6252 8.43627 11.4262 8.80015C11.4442 8.80824 11.458 8.81767 11.4747 8.82576L14.1489 10.3231C14.1572 10.3271 14.1669 10.3365 14.1752 10.3406C14.528 10.5764 14.6732 10.9417 14.6774 11.3541C14.6774 11.7745 14.5183 12.2476 14.2858 12.6452C13.9787 13.1721 13.5236 13.5212 13.0006 13.7516C12.5026 13.9754 11.9478 14.0953 11.4152 14.1721C10.5782 14.2921 9.79513 14.2152 8.9941 13.9754C8.20968 13.7395 7.4211 13.3487 6.5592 12.8298L6.49556 12.7907C6.09989 12.5508 5.6724 12.2921 5.25321 11.9888C3.71757 10.8594 2.15426 9.23007 1.13603 7.43627C0.281046 5.92953 -0.185182 4.30419 0.0693757 2.75433C0.210489 1.90527 0.584024 1.13303 1.23702 0.622251C1.80562 0.176159 2.57068 -0.069124 3.56262 0.0171293C3.67607 0.0252156 3.77844 0.0899058 3.83101 0.184245L5.54513 3.00635C5.79553 3.32306 5.82735 3.63708 5.69039 3.95109C5.57694 4.2085 5.34729 4.4457 5.03463 4.66673C4.94193 4.74354 4.83264 4.82171 4.71781 4.90257C4.33459 5.17346 3.8988 5.48613 4.04822 5.8554L4.04268 5.84732Z" fill="#ffffff"/>
</svg>
