<svg width="16" height="13" viewBox="0 0 16 13" fill="none" xmlns="http://www.w3.org/2000/svg">
<path fill-rule="evenodd" clip-rule="evenodd" d="M15.1807 0.000560394C14.6265 0.000560394 13.7739 0.300489 9.69962 1.97409C8.26237 2.56195 5.39599 3.77566 1.10047 5.61523C0.406208 5.89116 0.0408049 6.1551 0.00426459 6.41903C-0.0627259 6.91692 0.66808 7.07288 1.59377 7.37281C2.33439 7.63453 3.10248 7.8136 3.88363 7.90668C4.46524 7.87208 5.02211 7.66272 5.47922 7.30682C9.48647 4.63546 11.5551 3.28778 11.685 3.26378C11.7763 3.26378 11.9042 3.2158 11.9895 3.26378C12.0203 3.29874 12.0429 3.34002 12.0556 3.38464C12.0682 3.42925 12.0706 3.47608 12.0626 3.52172C11.9895 3.82765 8.21974 7.19885 8.00659 7.4208C7.17834 8.2666 6.23438 8.78847 7.68382 9.73025C8.94446 10.5461 9.67526 11.0679 10.9724 11.9017C11.8007 12.4356 12.4462 13.0715 13.3049 12.9935C13.6947 12.9575 14.1027 12.5916 14.3098 11.5058C14.8031 8.99842 15.7592 3.42575 15.9846 1.13429C16.0051 0.944878 16.0051 0.753839 15.9846 0.564426C15.9681 0.410291 15.8917 0.268411 15.7714 0.16852C15.5975 0.0523645 15.3907 -0.00644406 15.1807 0.000560394Z" fill="#ffffff"/>
</svg>
