<svg width="19" height="11" viewBox="0 0 19 11" fill="none" xmlns="http://www.w3.org/2000/svg">
<path d="M18.2365 10.9991H16.1562C15.3694 10.9991 15.1324 10.3781 13.7221 9.00282C12.4895 7.8452 11.969 7.70128 11.6572 7.70128C11.226 7.70128 11.1084 7.81677 11.1084 8.39514V10.2182C11.1084 10.7113 10.9443 11 9.6224 11C8.33998 10.916 7.09638 10.5364 5.99403 9.89227C4.89168 9.24817 3.96212 8.35806 3.28192 7.29527C1.66741 5.33596 0.543712 3.0369 0 0.580549C0 0.276707 0.118514 0.00129558 0.712905 0.00129558H2.79145C3.32568 0.00129558 3.51803 0.233175 3.72771 0.768895C4.7369 3.66338 6.459 6.18118 7.15823 6.18118C7.42625 6.18118 7.54294 6.06569 7.54294 5.41447V2.43292C7.45451 1.07274 6.71334 0.95813 6.71334 0.465942C6.72272 0.336091 6.78367 0.214916 6.88325 0.128157C6.98283 0.0413971 7.1132 -0.0041121 7.24666 0.00129558H10.514C10.9607 0.00129558 11.1084 0.218071 11.1084 0.738688V4.76326C11.1084 5.1977 11.2998 5.34162 11.4347 5.34162C11.7028 5.34162 11.9088 5.19769 12.4002 4.71972C13.453 3.46763 14.3135 2.07302 14.9546 0.57966C15.0199 0.400166 15.1438 0.246494 15.3073 0.14219C15.4708 0.0378863 15.6649 -0.0112945 15.8599 0.00218394H17.9393C18.5629 0.00218394 18.6951 0.306026 18.5629 0.739577C17.8064 2.39054 16.8705 3.95777 15.7714 5.41447C15.5472 5.74763 15.4578 5.92087 15.7714 6.31178C15.9775 6.61562 16.7068 7.20909 17.1963 7.77324C17.9092 8.46621 18.5009 9.26757 18.9485 10.1453C19.1272 10.7104 18.83 10.9991 18.2365 10.9991Z" fill="rgba(77, 113, 152, 1)"/>
</svg>
