<svg width="15" height="15" viewBox="0 0 15 15" fill="none" xmlns="http://www.w3.org/2000/svg">
<path d="M3.4046 13.7925L3.67766 13.9563C4.83602 14.639 6.15592 14.9993 7.50048 15C9.16329 14.9999 10.7789 14.4472 12.0934 13.4288C13.4079 12.4104 14.3466 10.9841 14.7621 9.37401C15.1776 7.76395 15.0462 6.06145 14.3887 4.53418C13.7311 3.0069 12.5847 1.74145 11.1295 0.936747C9.67442 0.132047 7.99313 -0.166265 6.34998 0.0887068C4.70683 0.343678 3.195 1.13747 2.05216 2.34531C0.90932 3.55314 0.200272 5.10652 0.0364828 6.76125C-0.127307 8.41597 0.263449 10.0782 1.14732 11.4867L1.32329 11.7718L0.570867 14.5631L3.4046 13.7925ZM3.70193 3.64079C3.77874 3.5554 3.87218 3.4866 3.97653 3.4386C4.08087 3.3906 4.19391 3.36442 4.30873 3.36166H4.73956C4.87912 3.36166 5.06116 3.31312 5.2432 3.75001C5.42524 4.1869 5.8864 5.2852 5.94101 5.40049C5.97291 5.46134 5.98957 5.52901 5.98957 5.5977C5.98957 5.6664 5.97291 5.73407 5.94101 5.79491C5.88396 5.93011 5.8084 6.05673 5.7165 6.17112C5.60121 6.30462 5.47985 6.46239 5.37669 6.56554C5.27354 6.6687 5.14611 6.80219 5.2796 7.02671C5.61617 7.60764 6.03978 8.13356 6.53567 8.58617C7.06988 9.06546 7.68668 9.44376 8.35606 9.70267C8.58057 9.81797 8.71407 9.79976 8.84756 9.64806C8.98106 9.49636 9.41188 8.99272 9.55752 8.76214C9.70315 8.53156 9.86091 8.57403 10.0672 8.65292C10.2735 8.7318 11.384 9.25971 11.6085 9.38714C11.833 9.51457 11.9847 9.55704 12.0393 9.64806C12.0991 10.0109 12.0549 10.3833 11.9119 10.7221C11.7452 10.9954 11.524 11.2313 11.2619 11.4151C10.9998 11.5989 10.7026 11.7265 10.3888 11.7901C9.9154 11.8733 9.42905 11.8442 8.96892 11.7051C8.53235 11.567 8.103 11.407 7.68252 11.2257C5.41917 10.2488 3.94465 7.97331 3.82936 7.82768C3.30514 7.15355 2.98695 6.34227 2.9131 5.49151C2.91141 5.14554 2.98052 4.80287 3.11618 4.48459C3.25184 4.16632 3.45117 3.87916 3.70193 3.64079Z" fill="#ffffff"/>
</svg>
